<svg
   width="100%"
   height="100%"
   viewBox="0 0 2150.3594 799.99995"
   version="1.1"
   xmlns="http://www.w3.org/2000/svg"
   xmlns:svg="http://www.w3.org/2000/svg"
   fill="currentColor"
   >
  <path
     d="M 1.875e-6,1.8164923e-5 V 800.00001 H 800.00002 V 1.8164923e-5 Z m 920.0000181249999,0 V 800.00001 h 268.84368 v -120.8164 h -151.2929 v -225.3066 h 108.8437 V 336.32621 H 1037.5508 V 120.81642 h 151.2929 V 1.8164923e-5 Z m 348.33588,0 V 800.00001 h 117.5508 v -337.4141 h 20.6797 l 66.3965,337.4141 h 117.5488 l -80,-380.4082 c 22.4944,-15.2381 41.5436,-39.183 57.1445,-71.8359 15.9637,-33.0159 23.9453,-72.0192 23.9453,-117.0078 0,-75.82758 -16.6898,-133.151842 -50.0683,-171.972702 C 1508.1545,19.591848 1456.2719,1.8164923e-5 1385.8867,1.8164923e-5 Z m 380.291,0 V 800.00001 h 117.5528 V 1.8164923e-5 Z m 348.336,0 c -31.6023,0 -58.9431,7.457600035077 -82.0235,22.371089835077 -23.0802,14.91339 -40.8358,35.15288 -53.2636,60.71875 -12.0728,25.565872 -18.1075,54.327792 -18.1075,86.285162 v 461.25199 c 0,32.3123 5.8585,61.2505 17.5762,86.8164 12.0727,25.5658 29.472,45.8052 52.1973,60.7187 23.0802,14.5584 50.9536,21.8379 83.6211,21.8379 31.6022,0 58.767,-7.4556 81.4922,-22.3691 23.0803,-14.9134 40.8338,-35.1529 53.2617,-60.7188 12.4278,-25.5659 18.6426,-54.3279 18.6426,-86.2851 v -107.5899 h -107.5899 v 107.5899 c 0,16.3337 -3.3726,30.0041 -10.1191,41.0117 -6.3915,11.0075 -17.578,16.5117 -33.5567,16.5117 -13.138,0 -23.2577,-5.6823 -30.3593,-17.0449 -6.7465,-11.3626 -10.1211,-24.855 -10.1211,-40.4785 V 169.37502 c 0,-15.62359 3.1965,-29.11788 9.5878,-40.48047 6.3915,-11.36259 16.6893,-17.04297 30.8926,-17.04297 15.6236,0 26.8101,5.50413 33.5567,16.51172 6.7465,11.00749 10.1191,24.67793 10.1191,41.01172 v 107.58989 h 107.5899 V 169.37502 c 0,-23.43538 -3.5507,-45.2741 -10.6524,-65.51368 -7.1016,-20.594782 -17.3996,-38.526432 -30.8926,-53.794922 -13.1381,-15.62358 -29.1162,-27.87301 -47.9355,-36.75 C 2042.0595,4.4393282 2020.7533,1.8164923e-5 1996.9629,1.8164923e-5 Z M 1385.8867,116.46291 c 33.0158,0 55.6918,10.33925 68.0273,31.01953 12.6984,20.31738 19.0489,49.52592 19.0489,87.62107 0,24.3084 -2.722,45.3512 -8.1641,63.1289 -5.4422,17.7778 -14.5126,31.5635 -27.2109,41.3594 -12.6985,9.4331 -29.9326,14.1504 -51.7012,14.1504 z M 148.66015,150.37697 400.00002,400.00001 148.66015,649.62311 Z m 251.33987,0 h 240 v 249.62304 249.6231 h -240 l 240,-249.6231 z" />
</svg>
